<?xml version="1.0" encoding="UTF-8"?><svg id="Layer_2" xmlns="http://www.w3.org/2000/svg" viewBox="0 0 523.9578 862.6816"><g id="Components"><g id="_x31_59adf13-fa01-4bff-9ed5-7196d5623584_x40_1"><path d="M519.5764,639.5348l-218.7746,218.7658c-5.8417,5.8414-15.3126,5.8413-21.1542-.0002L4.3812,583.0341c-5.8416-5.8416-5.8416-15.3128,0-21.1544l119.9618-119.9618c5.8416-5.8416,5.8416-15.3128,0-21.1544L4.3812,300.8017c-5.8416-5.8416-5.8416-15.3128,0-21.1544L279.6473,4.3812c5.8416-5.8416,15.3128-5.8416,21.1544,0l218.7659,218.766c5.8414,5.8414,5.8417,15.3122.0005,21.1539l-77.6502,77.6578c-5.8415,5.8421-15.3131,5.8423-21.1549.0005l-119.9613-119.9613c-5.8416-5.8416-15.3128-5.8416-21.1544,0l-77.6492,77.6492c-5.8416,5.8416-5.8416,15.3128,0,21.1544l119.9618,119.9618c5.8416,5.8416,5.8416,15.3128,0,21.1544l-119.9618,119.9618c-5.8416,5.8416-5.8416,15.3128,0,21.1544l77.6492,77.6492c5.8416,5.8416,15.3128,5.8416,21.1544,0l119.9618-119.9618c5.8416-5.8416,15.3128-5.8416,21.1544,0l77.6587,77.6587c5.8417,5.8417,5.8416,15.313-.0002,21.1546Z" style="fill:gold;"/><path d="M399.8835,420.7634c5.8416,5.8416,5.8416,15.3128,0,21.1544l-87.5388,87.5388-10.5742,10.5791c-5.8412,5.8439-15.3142,5.845-21.1568.0024l-76.9616-76.9616c-5.8407-5.8407-5.8418-15.31-.0024-21.152l.0067-.0067c5.8393-5.842,5.8383-15.3113-.0024-21.152h0c-5.8414-5.8414-5.8416-15.3122-.0005-21.1539l76.9602-76.9678c5.8425-5.8431,15.3159-5.8422,21.1574.0019l10.5737,10.5786,87.5388,87.5388Z" style="fill:gold;"/><rect x="214.6296" y="355.1854" width="152.3109" height="152.3109" rx="12.6235" ry="12.6235" transform="translate(-219.8351 331.9529) rotate(-45)" style="fill:#fff;"/></g></g></svg>