<?xml version="1.0" encoding="UTF-8"?>
<svg id="Layer_1" data-name="Layer 1" xmlns="http://www.w3.org/2000/svg" viewBox="0 0 1000 1000">
  <defs>
    <style>
      .cls-1, .cls-2 {
        stroke-miterlimit: 10;
      }

      .cls-1, .cls-2, .cls-3 {
        fill: none;
        stroke: #fefefe;
        stroke-width: 20.88px;
      }

      .cls-1, .cls-3 {
        stroke-linecap: round;
      }

      .cls-4 {
        fill: #fefefe;
      }

      .cls-4, .cls-5, .cls-6 {
        stroke-width: 0px;
      }

      .cls-5 {
        fill: #adadad;
      }

      .cls-6 {
        fill: #292929;
      }

      .cls-3 {
        stroke-linejoin: round;
      }
    </style>
  </defs>
  <g id="Submark">
    <g id="stroke">
      <path class="cls-6" d="M500.02,783.83c-112.1,0-213.28-66.49-257.77-169.4-15.21-35.21-22.92-72.66-22.92-111.3s7.06-72.81,20.98-106.65c20.91-50.85,56.05-94.17,101.62-125.29,46.69-31.87,101.35-48.72,158.09-48.72,60.2,0,117.59,18.78,165.96,54.29,47.39,34.8,82.15,82.56,100.52,138.1,9.41,28.3,14.18,58,14.18,88.27,0,37.69-7.35,74.28-21.85,108.73-21.14,50.32-56.28,93.15-101.64,123.86-46.48,31.47-100.83,48.1-157.17,48.1Z"/>
      <path class="cls-4" d="M500.02,230.66c120.57,0,222.83,78.29,258.71,186.78,8.95,26.93,13.77,55.74,13.77,85.7,0,37.43-7.54,73.08-21.21,105.56-41.2,98.08-138.21,166.95-251.27,166.95s-208.42-67.69-250.26-164.46c-14.31-33.12-22.25-69.64-22.25-108.05s7.24-71.63,20.36-103.54c40.76-99.13,138.31-168.94,252.14-168.94M500.02,214.29c-58.39,0-114.66,17.34-162.71,50.15-46.9,32.02-83.06,76.6-104.58,128.94-14.33,34.83-21.59,71.76-21.59,109.76s7.94,78.3,23.59,114.54c22.1,51.11,58.3,94.55,104.69,125.63,47.57,31.87,103.11,48.71,160.6,48.71s113.93-17.12,161.76-49.51c46.68-31.61,82.85-75.69,104.6-127.47,14.92-35.46,22.48-73.11,22.48-111.9,0-31.15-4.91-61.72-14.6-90.86-9.4-28.42-23.17-55.16-40.92-79.45-17.53-23.99-38.57-45.07-62.52-62.65-24.25-17.8-50.95-31.64-79.38-41.11-29.4-9.8-60.15-14.77-91.42-14.77h0Z"/>
    </g>
    <g id="bRIDGE">
      <g>
        <line class="cls-2" x1="728.31" y1="606.77" x2="728.31" y2="475.83"/>
        <line class="cls-2" x1="684.37" y1="600.08" x2="684.37" y2="523.11"/>
        <line class="cls-2" x1="314.35" y1="602.11" x2="314.35" y2="509.76"/>
        <line class="cls-2" x1="270.37" y1="609.43" x2="270.37" y2="453.86"/>
      </g>
      <g>
        <path class="cls-1" d="M507.3,589.24c89.57,0,173.83,8.29,247.49,22.84.16.03.25.21.19.36"/>
        <path class="cls-1" d="M247.28,614.99c-.07-.15.02-.33.19-.36,76.5-16.13,165.22-25.38,259.83-25.38"/>
      </g>
      <g>
        <path class="cls-3" d="M506.66,589.24c-122.06,0-225.6-80.12-262.02-191.21-.02-.06-.02-.13,0-.19"/>
        <path class="cls-3" d="M761.96,416.1c.02.06.02.13,0,.19-41.31,101.5-140.07,172.95-255.29,172.95"/>
      </g>
    </g>
    <g id="background">
      <path class="cls-4" d="M500.02,230.66c120.57,0,222.83,78.29,258.71,186.78,8.95,26.93,13.77,55.74,13.77,85.7,0,37.43-7.54,73.08-21.21,105.56-41.2,98.08-138.21,166.95-251.27,166.95s-208.42-67.69-250.26-164.46c-14.31-33.12-22.25-69.64-22.25-108.05s7.24-71.63,20.36-103.54c40.76-99.13,138.31-168.94,252.14-168.94M500.02,216.66c-57.91,0-113.71,17.2-161.37,49.73-46.51,31.76-82.38,75.98-103.72,127.88-14.21,34.54-21.42,71.17-21.42,108.86s7.87,77.65,23.4,113.6c21.92,50.69,57.82,93.78,103.83,124.6,47.18,31.6,102.26,48.31,159.28,48.31s112.99-16.98,160.43-49.1c46.29-31.35,82.17-75.06,103.74-126.43,14.79-35.16,22.3-72.51,22.3-110.98,0-30.9-4.87-61.21-14.48-90.11-9.32-28.19-22.98-54.71-40.59-78.79-17.39-23.79-38.25-44.7-62.01-62.14-24.05-17.66-50.53-31.38-78.73-40.78-29.15-9.72-59.66-14.65-90.67-14.65h0Z"/>
    </g>
    <g id="eye-r">
      <path class="cls-5" d="M617.83,467.25c-30.4,0-55.13-21.62-55.13-48.2,0-21.32,15.65-39.85,38.93-46.11l70.22-25.44.84-.28.98-.02c3.15,0,5.71,2.56,5.71,5.7v.16l-.87,15.17c-.32,6.48-3.92,12.32-9.62,15.57l-8.35,4.77c7.97,8.5,12.43,19.26,12.43,30.46,0,26.58-24.73,48.2-55.13,48.2Z"/>
      <path class="cls-4" d="M673.66,352.67c.14,0,.25.1.25.25l-.87,15.02c-.23,4.62-2.83,8.84-6.87,11.15l-14.84,8.49c9.93,7.74,16.17,18.95,16.17,31.48,0,23.62-22.24,42.74-49.67,42.74s-49.67-19.12-49.67-42.74c0-19.18,14.67-35.41,34.89-40.84h.06l70.47-25.53s.06-.02.09-.02M673.66,341.75c-1.22,0-2.42.2-3.58.59l-.12.04-.12.04-69.87,25.31c-12.05,3.28-22.49,9.71-30.2,18.59-8.2,9.44-12.54,20.76-12.54,32.73,0,14.65,6.52,28.33,18.35,38.51,11.36,9.77,26.36,15.15,42.24,15.15s30.89-5.38,42.24-15.15c11.83-10.18,18.35-23.85,18.35-38.51,0-10.38-3.38-20.41-9.56-28.93l2.73-1.56c7.3-4.17,11.92-11.66,12.35-20.03l.86-14.98.02-.31v-.31c0-6.15-5.01-11.16-11.17-11.16h0Z"/>
    </g>
    <g id="eye-l">
      <path class="cls-5" d="M383.14,467.25c-30.4,0-55.13-21.62-55.13-48.2,0-11.2,4.45-21.96,12.43-30.46l-8.35-4.78c-5.69-3.25-9.29-9.09-9.62-15.61l-.87-15.13v-.16c0-3.15,2.56-5.7,5.71-5.7h.89l1.06.34,70.08,25.39c23.28,6.25,38.93,24.78,38.93,46.11,0,26.58-24.73,48.2-55.13,48.2Z"/>
      <path class="cls-4" d="M327.31,352.67s.06,0,.09.02l70.47,25.53h.06c20.22,5.43,34.89,21.66,34.89,40.84,0,23.62-22.24,42.74-49.67,42.74s-49.67-19.12-49.67-42.74c0-12.53,6.24-23.74,16.17-31.48l-14.84-8.49c-4.04-2.31-6.64-6.53-6.87-11.15l-.87-15.02c0-.14.12-.25.25-.25M327.31,341.75c-6.16,0-11.17,5.01-11.17,11.16v.31l.02.31.86,14.98c.44,8.37,5.05,15.86,12.36,20.03l2.73,1.56c-6.18,8.52-9.56,18.55-9.56,28.93,0,14.65,6.52,28.33,18.35,38.51,11.36,9.77,26.36,15.15,42.24,15.15s30.89-5.38,42.24-15.15c11.83-10.18,18.35-23.85,18.35-38.51,0-11.97-4.33-23.29-12.54-32.73-7.71-8.88-18.15-15.3-30.21-18.59l-69.87-25.31-.11-.04-.11-.04c-1.16-.39-2.36-.59-3.59-.59h0Z"/>
    </g>
    <g>
      <g id="pen">
        <g>
          <g>
            <path class="cls-4" d="M499.91,555.94s-19.14-73.09-50.29-89.69c-.21-.12-.17-.41.05-.48,11.95-3.35,16.44-19.09,17.19-32.27.61-10.88.19-21.83-1.26-32.62-1.25-9.27-3.33-18.64-8.14-26.51-7.98-13.07-22.21-20.13-35.88-25.97-48.8-20.86-100.86-35-144.89-65.45-6.26-4.32-12.56-9.26-15.84-16.34-5.86-12.71-.34-28.07-2.96-41.92-.05-.28.27-.44.44-.23,11.6,14.85,23.5,29.86,38.76,40.38,9.31,6.42,19.63,11,29.89,15.55,35.46,15.72,70.93,31.43,106.39,47.15,16.23,7.2,33.36,15.13,43.35,30.43,8.73,13.36,10.62,30.25,12.24,46.4,1.68,16.67,3.24,34.25-3.22,49.57-1.26,3-2.85,6.01-2.85,9.29.02,6.72,6.37,11.15,10.04,16.66,4.81,7.23,5,16.69,5.01,25.52,0,16.66,1.82,49.73,1.82,49.73l.14.8Z"/>
            <path class="cls-4" d="M515.7,551.59c-2.32-8.86-5.3-17.59-8.5-26.16-6.47-17.34-13.97-34.99-24.96-50.01-6.65-9.09-14.28-17.88-24.36-23.3l5.87,5.87-.14-.26-2.56,19.84.19-.22c-2.41,1.4-4.82,2.81-7.23,4.21,9.35-2.75,17.07-9.44,21.63-18.02s6.2-16.85,7.24-26.02c.98-8.66.78-17.56.16-26.23-.72-9.9-1.82-20.11-4.72-29.65s-8.01-19.03-15.26-26.51c-5.91-6.09-13.18-11.05-20.67-15-7.82-4.12-16.09-7.42-24.25-10.78-7.74-3.19-15.54-6.23-23.36-9.23-17.55-6.73-35.18-13.23-52.51-20.52l3.91,1.65c-17.98-7.59-35.63-16.06-52.16-26.46-4.57-2.87-9.1-5.84-13.4-9.11l3.31,2.56c-3.12-2.41-6.03-5.04-8.44-8.17l2.56,3.31c-1.41-1.89-2.58-3.89-3.5-6.07l1.65,3.91c-.96-2.4-1.57-4.88-1.94-7.43l.58,4.35c-.74-5.64-.35-11.31-.05-16.96.37-7.07.17-13.85-1.1-20.85v8.71l.05-.23-7.53,9.79.18-.1h-16.53l.2.1-3.31-2.56c9.28,11.88,18.69,23.85,30.16,33.72,6.56,5.64,13.59,10.73,21.17,14.91,6.88,3.79,14.07,6.96,21.24,10.14,31.23,13.84,62.46,27.68,93.7,41.52,14.48,6.42,29.78,12.22,42.43,21.96l-3.31-2.56c3.92,3.06,7.51,6.51,10.58,10.42l-2.56-3.31c2.87,3.73,5.18,7.79,7.03,12.11l-1.65-3.91c3.38,8.09,5.08,16.71,6.25,25.37l-.58-4.35c1.01,7.63,1.79,15.32,2.37,23s.79,15.84-.22,23.7l.58-4.35c-.71,5.22-1.96,10.31-3.98,15.18l1.65-3.91c-1.6,3.75-3.6,7.46-4.36,11.49-.93,4.94-1.04,10.13.84,14.88.85,2.16,1.7,4.36,2.96,6.32,1.35,2.1,2.96,4.05,4.53,5.98s3.18,3.66,4.67,5.58l-2.56-3.31c1.35,1.78,2.45,3.67,3.32,5.74l-1.65-3.91c1.13,2.82,1.79,5.77,2.21,8.77l-.58-4.35c.7,5.59.54,11.22.62,16.85.07,4.82.22,9.64.39,14.46.31,8.82.71,17.64,1.17,26.46.17,3.3.39,6.38.96,9.68.67,3.82,4.3,7.9,7.53,9.79,3.51,2.05,8.68,2.92,12.62,1.65s7.78-3.74,9.79-7.53l1.65-3.91c.78-2.9.78-5.8,0-8.71l-.14-.8.58,4.35c-.43-7.9-.8-15.81-1.13-23.72-.26-6.26-.48-12.52-.61-18.79-.06-2.77-.08-5.54-.09-8.31-.02-5.34-.42-10.53-1.17-15.83s-2.51-10.73-5.23-15.52-6.51-8.39-9.78-12.54l2.56,3.31c-1.04-1.36-1.97-2.76-2.68-4.33l1.65,3.91c-.41-1-.7-1.99-.87-3.05l.58,4.35c-.12-1.05-.1-2.07.04-3.12l-.58,4.35c.31-1.71.89-3.32,1.56-4.92l-1.65,3.91c2.5-5.82,4.93-11.48,6.13-17.72s1.85-12.42,1.94-18.67c.14-10.11-1-20.22-2.11-30.25-1.19-10.77-2.5-21.77-6.11-32.05-3.88-11.05-9.72-21.14-18.25-29.27-14.67-13.98-33.79-21.32-52.01-29.39-20.75-9.2-41.51-18.4-62.26-27.59-10.37-4.59-20.74-9.19-31.1-13.79-9.44-4.19-18.93-8.42-27.6-14.08-2.12-1.38-4.17-2.85-6.17-4.39l3.31,2.56c-7.99-6.21-15.03-13.51-21.59-21.2-3.28-3.85-6.46-7.8-9.59-11.78-.78-.99-1.56-1.99-2.34-2.99-2.69-3.44-6.34-5.4-10.68-5.98-8.1-1.09-15.9,3.85-18.15,11.82-1.09,3.88-.22,7.36.3,11.17l-.58-4.35c.88,7.23,0,14.48-.19,21.73-.25,9.58,1.14,19.17,5.75,27.68s11.62,14.09,19.02,19.39c5.88,4.21,12.02,8.09,18.26,11.75,26.39,15.46,55.08,26.61,83.58,37.47,15.47,5.89,30.98,11.7,46.24,18.13l-3.91-1.65c9.38,3.96,18.78,8.14,26.9,14.38l-3.31-2.56c3.35,2.62,6.4,5.56,9.02,8.91l-2.56-3.31c2.35,3.08,4.25,6.42,5.76,9.99l-1.65-3.91c2.68,6.5,4.07,13.41,5.01,20.35l-.58-4.35c1.64,12.45,2.37,25.49.75,37.99l.58-4.35c-.64,4.67-1.71,9.28-3.53,13.64l1.65-3.91c-1.02,2.36-2.24,4.6-3.79,6.66l2.56-3.31c-1.08,1.38-2.29,2.63-3.67,3.72l3.31-2.56c-1.17.89-2.42,1.62-3.76,2.21l3.91-1.65c-3.36,1.37-6.79,2.2-9.34,5.1s-4.01,5.7-4.5,9.4.16,7.07,1.94,10.44c2.5,4.73,7.56,6.68,11.59,9.78l-3.31-2.56c4.32,3.38,8.05,7.44,11.4,11.77l-2.56-3.31c8.54,11.09,14.86,23.82,20.28,36.66l-1.65-3.91c4.82,11.46,8.97,23.23,12.37,35.2.23.8.45,1.6.66,2.41,1.04,3.95,4.01,7.73,7.53,9.79s8.68,2.92,12.62,1.65c3.96-1.28,7.78-3.74,9.79-7.53s2.8-8.25,1.65-12.62Z"/>
          </g>
          <g>
            <path class="cls-4" d="M739.09,266.6c-3.27,7.09-9.58,12.02-15.84,16.34-44.04,30.45-96.1,44.59-144.89,65.45-13.67,5.84-27.89,12.9-35.88,25.97-4.8,7.88-6.89,17.24-8.13,26.51-1.44,10.79-1.86,21.74-1.26,32.62.75,13.19,5.23,28.92,17.19,32.27.23.06.27.36.05.48-31.16,16.59-50.43,89.69-50.43,89.69l.13-.8s1.96-33.07,1.96-49.73c0-8.83.19-18.29,5.01-25.52,3.66-5.51,10.01-9.93,10.04-16.66,0-3.28-1.58-6.29-2.85-9.29-6.46-15.32-4.9-32.9-3.22-49.57,1.62-16.14,3.5-33.04,12.24-46.4,9.99-15.29,27.11-23.23,43.35-30.43,35.46-15.72,70.93-31.43,106.39-47.15,10.26-4.55,20.59-9.13,29.9-15.55,15.26-10.53,27.16-25.53,38.76-40.38.17-.22.48-.05.43.23-2.61,13.85,2.92,29.21-2.95,41.92Z"/>
            <path class="cls-4" d="M724.95,258.34c-.85,1.79-1.87,3.46-3.06,5.04l2.56-3.31c-2.42,3.12-5.33,5.76-8.45,8.17l3.31-2.56c-15.36,11.7-32.88,20.82-50.36,28.88-5.03,2.32-10.1,4.53-15.2,6.69l3.91-1.65c-15.44,6.5-31.12,12.37-46.77,18.33-16.36,6.23-32.92,12.36-48.74,19.9-7.8,3.71-14.98,8.24-21.57,13.84-3.7,3.14-6.69,6.76-9.61,10.62-3.24,4.28-5.39,8.94-7.41,13.9-3.66,8.98-4.96,18.69-6.03,28.27s-1.34,18.71-.87,28.07c.25,5.03.86,10.08,1.86,15.01s2.69,9.35,4.73,13.85c4.33,9.57,12.53,17.2,22.67,20.18-2.41-1.4-4.82-2.81-7.23-4.21l.19.22-2.56-19.84-.14.26,5.87-5.87c-7.86,4.23-14.62,10.71-20.09,17.7-6.28,8.03-11.69,16.46-16.31,25.55-7.61,14.98-13.75,30.8-18.78,46.82-.98,3.12-1.94,6.25-2.77,9.41,10.53,2.9,21.05,5.8,31.58,8.71,1.07-6.46,1.17-13.04,1.49-19.57.49-9.82.94-19.66,1.13-29.49.12-6.13-.12-12.29.65-18.39l-.58,4.35c.41-3.01,1.08-5.95,2.21-8.77l-1.65,3.91c.87-2.06,1.98-3.95,3.33-5.74l-2.56,3.31c1.49-1.92,3.15-3.69,4.67-5.58s3.17-3.88,4.53-5.98c1.26-1.96,2.11-4.17,2.96-6.32,1.88-4.75,1.77-9.94.84-14.88-.76-4.04-2.76-7.74-4.36-11.49l1.65,3.91c-2.02-4.87-3.27-9.97-3.98-15.18l.58,4.35c-1-7.87-.81-15.81-.22-23.7s1.35-15.37,2.36-23l-.58,4.35c1.17-8.65,2.88-17.28,6.25-25.37l-1.65,3.91c1.85-4.32,4.16-8.38,7.03-12.11l-2.56,3.31c3.08-3.92,6.66-7.36,10.58-10.42l-3.31,2.56c11.11-8.56,24.26-13.91,36.99-19.55,15.51-6.88,31.03-13.75,46.55-20.63,15.62-6.92,31.23-13.84,46.85-20.76,7.25-3.21,14.56-6.33,21.65-9.89,8.07-4.04,15.43-8.86,22.52-14.43,13.28-10.43,23.81-23.76,34.15-36.99l-3.31,2.56.2-.1h-16.53l.18.1-7.53-9.79.05.23v-8.71c-1.27,7.01-1.47,13.78-1.09,20.85.3,5.65.69,11.33-.05,16.96l.58-4.35c-.37,2.56-.99,5.03-1.94,7.43l1.65-3.91c-.14.34-.29.68-.45,1.02-1.2,1.88-1.84,3.91-1.94,6.09-.49,2.18-.39,4.35.29,6.53,1.05,3.8,3.98,7.91,7.53,9.79,3.8,2.01,8.4,3.01,12.62,1.65,3.81-1.23,8.08-3.72,9.79-7.53,1.18-2.62,2.39-5.28,3.16-8.06s1.09-5.76,1.46-8.66c.44-3.44.49-6.9.37-10.36-.23-6.96-1.01-13.93-.17-20.87l-.58,4.35c.51-3.79,1.39-7.29.3-11.17-2.04-7.26-8.62-11.79-15.97-12.12-4.98-.22-9.86,2.45-12.86,6.28-.72.92-1.44,1.84-2.16,2.76-3.19,4.05-6.42,8.08-9.77,12.01-6.56,7.69-13.59,14.99-21.59,21.2l3.31-2.56c-8.18,6.27-17.3,11-26.64,15.27-10.08,4.6-20.26,9.01-30.39,13.5-20.75,9.2-41.51,18.39-62.26,27.59-9.65,4.27-19.35,8.43-28.92,12.89s-17.82,9.34-25.89,15.65c-7.98,6.24-14.84,14.42-19.17,23.6-4.68,9.91-7.34,20.15-8.83,30.97s-2.86,22.37-3.37,33.59c-.23,5.13-.23,10.29.27,15.41.6,6.17,1.47,12.42,3.43,18.33,1.18,3.56,2.76,6.96,4.24,10.4l-1.65-3.91c.67,1.6,1.25,3.21,1.56,4.92l-.58-4.35c.14,1.05.16,2.07.04,3.12l.58-4.35c-.17,1.06-.46,2.05-.87,3.05l1.65-3.91c-.71,1.56-1.64,2.97-2.68,4.33l2.56-3.31c-2.96,3.76-6.28,7.19-8.94,11.19s-4.69,9.27-5.64,14.21c-1.58,8.2-1.51,16.34-1.65,24.63-.21,11.95-.79,23.89-1.42,35.82-.16,2.95-.32,5.91-.49,8.86l.58-4.35-.13.8c-.68,2.18-.78,4.35-.29,6.53.1,2.18.75,4.21,1.94,6.09,1.99,3.4,5.88,6.64,9.79,7.53,4.19.95,8.9.75,12.62-1.65s6.42-5.59,7.53-9.79c2.2-8.33,4.99-16.54,7.96-24.61,1.57-4.25,3.23-8.47,4.99-12.65l-1.65,3.91c5.48-12.97,11.86-25.81,20.48-37l-2.56,3.31c3.36-4.33,7.09-8.39,11.41-11.77l-3.31,2.56c4.03-3.11,9.08-5.03,11.59-9.78,1.75-3.31,2.44-6.72,1.94-10.44s-2-6.55-4.5-9.4-5.98-3.73-9.34-5.1l3.91,1.65c-1.35-.59-2.59-1.32-3.76-2.21l3.31,2.56c-1.38-1.09-2.58-2.34-3.67-3.72l2.56,3.31c-1.55-2.05-2.78-4.3-3.79-6.66l1.65,3.91c-1.82-4.36-2.89-8.97-3.53-13.64l.58,4.35c-1.62-12.5-.89-25.54.75-37.99l-.58,4.35c.95-6.94,2.34-13.85,5.01-20.35l-1.65,3.91c1.51-3.57,3.41-6.91,5.76-9.99l-2.56,3.31c2.62-3.35,5.67-6.29,9.02-8.91l-3.31,2.56c8.12-6.24,17.53-10.42,26.91-14.38l-3.91,1.65c21.99-9.26,44.49-17.23,66.67-26.04,23.22-9.22,46.3-19.19,67.66-32.26,5.51-3.37,10.98-6.89,16.13-10.8,6.9-5.25,13.57-11.08,17.38-19.08,1.92-4.05,2.88-8.16,1.65-12.62-1.05-3.8-3.98-7.91-7.53-9.79-3.8-2.01-8.4-3.01-12.62-1.65-3.86,1.25-7.98,3.72-9.79,7.53Z"/>
          </g>
        </g>
      </g>
      <g id="pen-2" data-name="pen">
        <g>
          <g>
            <path class="cls-5" d="M499.97,555.94s-19.14-73.09-50.29-89.69c-.21-.12-.17-.41.05-.48,11.95-3.35,16.44-19.09,17.19-32.27.61-10.88.19-21.83-1.26-32.62-1.25-9.27-3.33-18.64-8.14-26.51-7.98-13.07-22.21-20.13-35.88-25.97-48.8-20.86-100.86-35-144.89-65.45-6.26-4.32-12.56-9.26-15.84-16.34-5.86-12.71-.34-28.07-2.96-41.92-.05-.28.27-.44.44-.23,11.6,14.85,23.5,29.86,38.76,40.38,9.31,6.42,19.63,11,29.89,15.55,35.46,15.72,70.93,31.43,106.39,47.15,16.23,7.2,33.36,15.13,43.35,30.43,8.73,13.36,10.62,30.25,12.24,46.4,1.68,16.67,3.24,34.25-3.22,49.57-1.26,3-2.85,6.01-2.85,9.29.02,6.72,6.37,11.15,10.04,16.66,4.81,7.23,5,16.69,5.01,25.52,0,16.66,1.82,49.73,1.82,49.73l.14.8Z"/>
            <path class="cls-5" d="M503.89,554.86c-2.32-8.86-5.3-17.59-8.5-26.16-6.12-16.39-13.34-32.89-23.72-47.07-5.41-7.39-11.78-14.49-19.94-18.88l1.46,1.46-.14-.26-.64,4.93.19-.22-1.79,1.05c10.19-3,15.63-12.84,18.13-22.52,1.35-5.21,1.92-10.6,2.15-15.96.31-7.19.16-14.39-.42-21.56-1.07-13.02-2.95-27.01-10.19-38.22-6.38-9.86-16.17-16.69-26.53-21.87-11.05-5.52-22.71-9.95-34.21-14.43s-23.85-9.09-35.76-13.69c-23.67-9.14-47.2-18.92-69.13-31.79-5.47-3.21-10.83-6.61-16.05-10.22-4.5-3.11-9.15-6.55-12.26-11.14-6.98-10.33-3.66-23.52-3.77-35.15-.03-3.2-.32-6.39-.9-9.54v2.16l.05-.23-1.87,2.43.18-.1h-4.1c-.77-.39.43.81.45.84.24.31.48.61.72.92.66.84,1.32,1.68,1.99,2.53,1.33,1.68,2.66,3.36,4.01,5.03,2.57,3.17,5.18,6.31,7.89,9.37,5.41,6.12,11.18,11.96,17.57,17.06,13.56,10.82,29.57,17.34,45.29,24.31,33.69,14.93,67.48,29.68,101.08,44.81,12.95,5.83,26.17,12.37,35.37,23.5,9.75,11.8,12.27,27.79,13.87,42.54,1.73,15.92,4.1,32.93-.54,48.58-1.16,3.91-3.2,7.5-4.3,11.41s-.63,8.08,1.26,11.8c1.59,3.13,4.1,5.75,6.36,8.41,2.1,2.47,3.89,5.15,4.92,8.42,2.12,6.72,1.79,13.85,1.86,20.82.06,5.84.25,11.67.46,17.5.35,9.46.79,18.91,1.29,28.36.05,1,.17,1.96.34,2.95.38,2.16,3.03,3.38,5,2.84,2.29-.63,3.22-2.83,2.84-5-.27-1.54-.01.71,0,.12,0-.3-.03-.61-.05-.91-.07-1.23-.13-2.47-.19-3.7-.22-4.34-.43-8.68-.62-13.02-.46-10.41-.92-20.84-.95-31.26-.02-6.87-.02-13.97-2.06-20.6-1.02-3.31-2.52-6.43-4.62-9.19-1.77-2.33-4.12-4.79-5.7-6.89-.42-.56-.82-1.14-1.19-1.74-.2-.33-.39-.66-.57-1-.05-.09-.46-.94-.26-.47-.63-1.47-.79-2.3-.61-3.82.39-3.29,2.39-6.45,3.52-9.53,2.62-7.1,3.67-14.76,3.92-22.29s-.34-15.12-1.06-22.64-1.42-14.5-2.58-21.69c-2.26-13.96-6.87-27.52-16.64-38.06-9-9.71-20.96-16.04-32.86-21.48-14.58-6.67-29.31-13.02-43.96-19.52-15.11-6.7-30.22-13.39-45.34-20.09-7.66-3.39-15.31-6.79-22.97-10.18-6.97-3.09-13.95-6.19-20.63-9.87-12.8-7.05-23.33-16.75-32.86-27.74-4.85-5.59-9.16-11.63-13.98-17.23-1.67-1.94-4.56-2.39-6.49-.47s-1,4.22-.76,6.46c.38,3.6.3,7.24.15,10.85-.32,7.26-.98,14.5.3,21.7s5,13.33,10.21,18.29,11.44,8.92,17.49,12.77,12.47,7.57,18.91,11.01c26.07,13.91,53.86,24.17,81.42,34.66,13.42,5.11,26.88,10.2,40.01,16.01,11.28,4.99,23.13,11.1,30.17,21.57,3.96,5.89,6.1,12.64,7.48,19.55,1.54,7.68,2.24,15.55,2.51,23.37.14,4.14.14,8.28-.01,12.42-.06,1.68-.14,3.36-.27,5.04-.05.6-.1,1.2-.17,1.79-.11,1.01-.13,1.17-.23,1.86-.83,5.54-2.25,10.9-4.89,15.42-.35.61-.73,1.2-1.13,1.77-.16.23-.32.45-.48.67.34-.45-.07.09-.12.15-.81.98-1.71,1.89-2.69,2.71-.57.47.75-.5-.28.21-.22.15-.44.3-.66.44-.5.32-1.03.6-1.56.88-.14.08-.93.41-.31.16-.25.1-.51.19-.76.28-1.04.35-2.01.64-2.77,1.5-1.25,1.42-1.52,3.24-.64,4.93.99,1.88,3.71,2.87,5.43,4.08.34.24.67.48,1,.72.17.12.33.25.5.37-.69-.53-.22-.18-.08-.06.73.62,1.48,1.22,2.19,1.85,2.99,2.68,5.68,5.68,8.17,8.83.58.74-.12-.17.45.59.32.43.65.86.97,1.3.65.88,1.28,1.77,1.9,2.68,1.23,1.79,2.4,3.61,3.54,5.46,2.32,3.79,4.46,7.68,6.47,11.64s3.87,7.94,5.63,11.99c.22.51.44,1.02.66,1.53.1.24.61,1.44.31.72.42,1,.84,2.01,1.25,3.02.79,1.95,1.56,3.91,2.31,5.88,2.41,6.32,4.63,12.72,6.64,19.19.95,3.05,1.88,6.1,2.69,9.19,1.33,5.06,9.17,2.91,7.84-2.16Z"/>
          </g>
          <g>
            <path class="cls-5" d="M739.16,266.6c-3.27,7.09-9.58,12.02-15.84,16.34-44.04,30.45-96.1,44.59-144.89,65.45-13.67,5.84-27.89,12.9-35.88,25.97-4.8,7.88-6.89,17.24-8.13,26.51-1.44,10.79-1.86,21.74-1.26,32.62.75,13.19,5.23,28.92,17.19,32.27.23.06.27.36.05.48-31.16,16.59-50.43,89.69-50.43,89.69l.13-.8s1.96-33.07,1.96-49.73c0-8.83.19-18.29,5.01-25.52,3.66-5.51,10.01-9.93,10.04-16.66,0-3.28-1.58-6.29-2.85-9.29-6.46-15.32-4.9-32.9-3.22-49.57,1.62-16.14,3.5-33.04,12.24-46.4,9.99-15.29,27.11-23.23,43.35-30.43,35.46-15.72,70.93-31.43,106.39-47.15,10.26-4.55,20.59-9.13,29.9-15.55,15.26-10.53,27.16-25.53,38.76-40.38.17-.22.48-.05.43.23-2.61,13.85,2.92,29.21-2.95,41.92Z"/>
            <path class="cls-5" d="M735.65,264.55c-4.49,9.44-14.43,15.17-22.94,20.55-9.61,6.07-19.61,11.51-29.84,16.48-20.34,9.89-41.5,17.9-62.61,25.93-10.56,4.01-21.12,8.03-31.59,12.27-9.93,4.03-20.08,7.98-29.32,13.49-8.86,5.28-16.9,12.31-21.73,21.57-5.56,10.67-7.25,22.98-8.22,34.83s-1.21,23.18,1.02,34.38c1.73,8.7,5.43,17.77,12.99,22.95,1.77,1.22,3.8,2.1,5.86,2.7l-1.79-1.05.19.22-.64-4.93-.14.26,1.46-1.46c-6.99,3.76-12.75,9.57-17.6,15.77-5.6,7.17-10.27,14.96-14.39,23.06-7.13,14.04-12.82,28.86-17.54,43.88-.98,3.12-1.94,6.25-2.77,9.41l7.84,2.16c.4-2.42.45-4.87.58-7.31.28-5.09.54-10.19.77-15.29.28-6.1.53-12.19.7-18.29s.01-12.27.34-18.38c.19-3.61.65-7.16,1.77-10.61,1.03-3.16,2.81-5.79,4.85-8.17,2.26-2.65,4.77-5.27,6.36-8.41,1.94-3.81,2.41-7.95,1.18-12.07s-3.23-7.66-4.38-11.69c-1.07-3.77-1.76-7.64-2.09-11.54-.71-8.31-.2-16.68.56-24.97,1.38-15.05,2.37-31.29,9.26-45.03,6.66-13.29,18.77-21.6,31.74-28.09,7.08-3.54,14.38-6.65,21.61-9.85,8.46-3.75,16.93-7.5,25.39-11.25,17.03-7.55,34.05-15.09,51.08-22.64,8.44-3.74,16.88-7.46,25.31-11.22,7.7-3.44,15.36-7.03,22.51-11.51,13.98-8.78,25.21-20.97,35.51-33.72,1.22-1.52,2.44-3.04,3.65-4.57.66-.84,1.33-1.68,1.99-2.53.3-.38.6-.77.9-1.15.03-.04,1.22-1.23.45-.84h-4.1l.18.1-1.87-2.43.05.23v-2.16c-1.3,7.19-.79,14.36-.44,21.61.31,6.42.59,13.34-2.1,19.34-.9,2-.58,4.37,1.46,5.56,1.74,1.02,4.66.55,5.56-1.46,3.85-8.58,3.52-17.71,3.03-26.89-.24-4.47-.46-8.97-.03-13.45.26-2.67,1.29-5.65-1.55-7.37-1.33-.81-2.93-.83-4.28-.1-1.22.67-1.98,1.96-2.82,3.03-10.91,13.92-22.31,28.18-37.14,38.13-7.85,5.27-16.43,9.31-25.05,13.16-9.33,4.17-18.68,8.29-28.03,12.43-18.74,8.3-37.48,16.61-56.22,24.91-9.29,4.12-18.59,8.22-27.87,12.35-7.42,3.31-14.81,6.75-21.7,11.07s-13.42,9.64-18.48,16.17c-5.36,6.92-8.87,14.98-11.09,23.42s-3.31,17.69-4.22,26.61-1.92,18.52-1.66,27.82,1.92,18.46,5.67,27.09c.77,1.77,1.68,3.66,1.82,5.61.11,1.62-.29,2.9-1,4.21-1.68,3.08-4.17,5.39-6.42,8.22-5.72,7.21-7.27,15.86-7.54,24.86-.2,6.68-.14,13.36-.37,20.05-.38,11.17-.93,22.34-1.57,33.5-.02.43-.06.87-.07,1.3-.03,1.12.26-1.57,0,.07-.36,2.16.57,4.38,2.84,5,2.11.58,4.44-.71,5-2.84,2.3-8.7,5.22-17.27,8.37-25.7.7-1.87,1.41-3.73,2.14-5.59.37-.94.74-1.87,1.12-2.8.2-.5.41-1,.62-1.5.09-.22.19-.45.28-.67.04-.09.42-.99.22-.53-.1.23.4-.93.52-1.21.2-.45.39-.91.59-1.36.45-1.03.91-2.05,1.37-3.08.94-2.07,1.91-4.13,2.91-6.18,3.86-7.89,8.19-15.6,13.38-22.68.35-.48.72-.96,1.08-1.44.09-.11.47-.61.02-.03.22-.28.44-.56.66-.84.69-.86,1.4-1.72,2.12-2.55,1.43-1.65,2.94-3.25,4.53-4.76.78-.74,1.58-1.46,2.41-2.15.4-.34.81-.67,1.23-1-.75.6.42-.31.67-.49,1.82-1.31,4.88-2.44,5.93-4.43.9-1.69.61-3.51-.64-4.93-.96-1.09-2.27-1.27-3.53-1.78.56.22-.51-.26-.67-.34-.47-.25-.92-.52-1.37-.8-.16-.1-1.08-.78-.62-.41-.36-.29-.71-.6-1.05-.92-.74-.69-1.43-1.44-2.05-2.23.33.42-.26-.38-.35-.5-.28-.4-.55-.81-.8-1.23-.56-.91-1.07-1.86-1.54-2.83-.75-1.56-1.43-3.45-2.03-5.5-1.25-4.28-1.83-8.02-2.12-12.18-.43-6.16-.43-12.37-.14-18.53.52-11.25,1.64-23.2,5.99-33.71,3.74-9.03,10.65-15.83,18.79-20.93s17.98-9.15,27.28-12.94c10.28-4.2,20.65-8.16,31.03-12.1,21.05-8,42.16-15.95,62.54-25.57,10.1-4.76,20-9.94,29.56-15.72,4.73-2.86,9.39-5.86,13.91-9.03s8.69-6.34,12.07-10.49c1.7-2.09,3.2-4.27,4.35-6.7.94-1.98.55-4.39-1.46-5.56-1.77-1.04-4.61-.53-5.56,1.46Z"/>
          </g>
        </g>
      </g>
    </g>
  </g>
</svg>